{
	"asset":{
		"generator":"Khronos glTF Blender I/O v4.5.47",
		"version":"2.0"
	},
	"extensionsUsed":[
		"KHR_materials_specular",
		"KHR_materials_sheen",
		"KHR_materials_ior",
		"KHR_texture_transform"
	],
	"extensionsRequired":[
		"KHR_texture_transform"
	],
	"scene":0,
	"scenes":[
		{
			"name":"Scene",
			"nodes":[
				0,
				1,
				2,
				3,
				4,
				5,
				6
			]
		}
	],
	"nodes":[
		{
			"mesh":0,
			"name":"prox plane",
			"rotation":[
				-0.0035592643544077873,
				-0.003307886188849807,
				0.7096564769744873,
				0.7045310735702515
			],
			"translation":[
				-0.04315105080604553,
				-0.980303168296814,
				-0.721948504447937
			]
		},
		{
			"mesh":1,
			"name":"Animated Shirt",
			"scale":[
				5.4828782081604,
				5.4828782081604,
				5.4828782081604
			],
			"translation":[
				0.13046245276927948,
				1.919896125793457,
				-2.442803144454956
			]
		},
		{
			"name":"thread 1"
		},
		{
			"name":"thread 2",
			"translation":[
				0,
				0,
				-0.28346750140190125
			]
		},
		{
			"name":"thread 3",
			"translation":[
				0,
				0,
				-0.5781326293945312
			]
		},
		{
			"name":"thread 4",
			"translation":[
				0,
				0,
				-0.8807511925697327
			]
		},
		{
			"name":"thread 5",
			"translation":[
				0,
				0,
				-1.209039568901062
			]
		}
	],
	"animations":[
		{
			"channels":[
				{
					"sampler":0,
					"target":{
						"node":0,
						"path":"translation"
					}
				},
				{
					"sampler":1,
					"target":{
						"node":0,
						"path":"scale"
					}
				}
			],
			"name":"CubeAction.001",
			"samplers":[
				{
					"input":8,
					"interpolation":"LINEAR",
					"output":9
				},
				{
					"input":10,
					"interpolation":"STEP",
					"output":11
				}
			]
		},
		{
			"channels":[
				{
					"sampler":0,
					"target":{
						"node":1,
						"path":"rotation"
					}
				}
			],
			"name":"Animated ShirtAction.004",
			"samplers":[
				{
					"input":12,
					"interpolation":"LINEAR",
					"output":13
				}
			]
		}
	],
	"materials":[
		{
			"alphaMode":"BLEND",
			"doubleSided":true,
			"extensions":{
				"KHR_materials_specular":{
					"specularFactor":0.10000000149011612
				},
				"KHR_materials_sheen":{
					"sheenColorFactor":[
						1.0,
						1.0,
						1.0
					],
					"sheenRoughnessFactor":0.5
				},
				"KHR_materials_ior":{
					"ior":1.4500000476837158
				}
			},
			"name":"Tshirt Material",
			"normalTexture":{
				"extensions":{
					"KHR_texture_transform":{
						"offset":[
							0,
							18.19999885559082
						],
						"scale":[
							-17.19999885559082,
							-17.19999885559082
						]
					}
				},
				"index":0,
				"scale":-1
			},
			"pbrMetallicRoughness":{
				"baseColorTexture":{
					"index":1
				},
				"metallicFactor":0.013698630034923553
			}
		}
	],
	"meshes":[
		{
			"name":"Cube",
			"primitives":[
				{
					"attributes":{
						"POSITION":0,
						"NORMAL":1,
						"TEXCOORD_0":2
					},
					"indices":3
				}
			]
		},
		{
			"name":"Shirt",
			"primitives":[
				{
					"attributes":{
						"POSITION":4,
						"NORMAL":5,
						"TEXCOORD_0":6
					},
					"indices":7,
					"material":0
				}
			]
		}
	],
	"textures":[
		{
			"sampler":0,
			"source":0
		},
		{
			"sampler":0,
			"source":1
		}
	],
	"images":[
		{
			"mimeType":"image/png",
			"name":"Fabric_NormalGL",
			"uri":"Fabric_NormalGL.png"
		},
		{
			"mimeType":"image/png",
			"name":"DBWYCWWhiteTEMP",
			"uri":"DBWYCWWhiteTEMP.png"
		}
	],
	"accessors":[
		{
			"bufferView":0,
			"componentType":5126,
			"count":4,
			"max":[
				0.42786696553230286,
				4.135471343994141,
				3.741137742996216
			],
			"min":[
				0.42786696553230286,
				-4.135471343994141,
				-3.741137742996216
			],
			"type":"VEC3"
		},
		{
			"bufferView":1,
			"componentType":5126,
			"count":4,
			"type":"VEC3"
		},
		{
			"bufferView":2,
			"componentType":5126,
			"count":4,
			"type":"VEC2"
		},
		{
			"bufferView":3,
			"componentType":5123,
			"count":6,
			"type":"SCALAR"
		},
		{
			"bufferView":4,
			"componentType":5126,
			"count":616476,
			"max":[
				0.33299267292022705,
				0.34621667861938477,
				0.23039111495018005
			],
			"min":[
				-0.34940198063850403,
				-0.3865998387336731,
				-0.14541122317314148
			],
			"type":"VEC3"
		},
		{
			"bufferView":5,
			"componentType":5126,
			"count":616476,
			"type":"VEC3"
		},
		{
			"bufferView":6,
			"componentType":5126,
			"count":616476,
			"type":"VEC2"
		},
		{
			"bufferView":7,
			"componentType":5125,
			"count":3232122,
			"type":"SCALAR"
		},
		{
			"bufferView":8,
			"componentType":5126,
			"count":243,
			"max":[
				4.033333333333333
			],
			"min":[
				0
			],
			"type":"SCALAR"
		},
		{
			"bufferView":9,
			"componentType":5126,
			"count":243,
			"type":"VEC3"
		},
		{
			"bufferView":10,
			"componentType":5126,
			"count":2,
			"max":[
				4.033333333333333
			],
			"min":[
				0
			],
			"type":"SCALAR"
		},
		{
			"bufferView":11,
			"componentType":5126,
			"count":2,
			"type":"VEC3"
		},
		{
			"bufferView":12,
			"componentType":5126,
			"count":201,
			"max":[
				3.3333333333333335
			],
			"min":[
				0
			],
			"type":"SCALAR"
		},
		{
			"bufferView":13,
			"componentType":5126,
			"count":201,
			"type":"VEC4"
		}
	],
	"bufferViews":[
		{
			"buffer":0,
			"byteLength":48,
			"byteOffset":0,
			"target":34962
		},
		{
			"buffer":0,
			"byteLength":48,
			"byteOffset":48,
			"target":34962
		},
		{
			"buffer":0,
			"byteLength":32,
			"byteOffset":96,
			"target":34962
		},
		{
			"buffer":0,
			"byteLength":12,
			"byteOffset":128,
			"target":34963
		},
		{
			"buffer":0,
			"byteLength":7397712,
			"byteOffset":140,
			"target":34962
		},
		{
			"buffer":0,
			"byteLength":7397712,
			"byteOffset":7397852,
			"target":34962
		},
		{
			"buffer":0,
			"byteLength":4931808,
			"byteOffset":14795564,
			"target":34962
		},
		{
			"buffer":0,
			"byteLength":12928488,
			"byteOffset":19727372,
			"target":34963
		},
		{
			"buffer":0,
			"byteLength":972,
			"byteOffset":32655860
		},
		{
			"buffer":0,
			"byteLength":2916,
			"byteOffset":32656832
		},
		{
			"buffer":0,
			"byteLength":8,
			"byteOffset":32659748
		},
		{
			"buffer":0,
			"byteLength":24,
			"byteOffset":32659756
		},
		{
			"buffer":0,
			"byteLength":804,
			"byteOffset":32659780
		},
		{
			"buffer":0,
			"byteLength":3216,
			"byteOffset":32660584
		}
	],
	"samplers":[
		{
			"magFilter":9729,
			"minFilter":9987
		}
	],
	"buffers":[
		{
			"byteLength":32663800,
			"uri":"DBWYCWKnitted%20Animated%20Tshirt.bin"
		}
	]
}
